<svg xmlns="http://www.w3.org/2000/svg" width="200" height="200" viewBox="0 0 100 100">
  <defs>
    <linearGradient id="circleGradient" x1="0%" y1="0%" x2="100%" y2="100%">
      <stop offset="0%" stop-color="#0cc0df" />
      <stop offset="100%" stop-color="#ffde59" />
    </linearGradient>
    <clipPath id="circleClip">
      <circle cx="50" cy="50" r="50"/>
    </clipPath>
  </defs>

  <!-- circle background -->
  <circle cx="50" cy="50" r="50" fill="url(#circleGradient)" clip-path="url(#circleClip)" />

  <!-- white star shape centered and bigger -->
  <g transform="translate(10,10) scale(0.8)">
    <path fill="white" d="M52.5,16l9.4,11.3c0.5,0.6,1.2,1,1.9,1.1l14.5,2.4c2,0.3,3.1,2.4,2.5,4.2l-5.1,13.8c-0.3,0.7-0.3,1.5,0,2.2l5.1,13.8
        c0.7,1.9-0.5,3.9-2.5,4.2l-14.5,2.4c-0.8,0.1-1.4,0.5-1.9,1.1L52.5,84c-1.3,1.5-3.6,1.5-4.9,0l-9.4-11.3c-0.5-0.6-1.2-1-1.9-1.1
        l-14.5-2.4c-2-0.3-3.1-2.4-2.5-4.2l5.1-13.8c0.3-0.7,0.3-1.5,0-2.2l-5.1-13.8c-0.7-1.9,0.5-3.9,2.5-4.2l14.5-2.4
        c0.8-0.1,1.4-0.5,1.9-1.1L47.5,16C48.8,14.4,51.2,14.4,52.5,16z"/>
  </g>
</svg>
